<svg width="44" height="45" viewBox="0 0 44 45" fill="none" xmlns="http://www.w3.org/2000/svg">
<path d="M14 5V1H30V5" stroke="#007980" stroke-width="2" stroke-miterlimit="10"/>
<path d="M25 36H20V44H25V36Z" stroke="#007980" stroke-width="2" stroke-miterlimit="10"/>
<path d="M16 23V19H20V23" stroke="#007980" stroke-width="2" stroke-miterlimit="10"/>
<path d="M16 31V27H20V31" stroke="#007980" stroke-width="2" stroke-miterlimit="10"/>
<path d="M25 23V19H29V23" stroke="#007980" stroke-width="2" stroke-miterlimit="10"/>
<path d="M16 15V11H20V15" stroke="#007980" stroke-width="2" stroke-miterlimit="10"/>
<path d="M25 15V11H29V15" stroke="#007980" stroke-width="2" stroke-miterlimit="10"/>
<path d="M25 31V27H29V31" stroke="#007980" stroke-width="2" stroke-miterlimit="10"/>
<path d="M8 44H1V17H8" stroke="#FF6600" stroke-width="2" stroke-miterlimit="10"/>
<path d="M4 17V13H8" stroke="#FF6600" stroke-width="2" stroke-miterlimit="10"/>
<path d="M37 44H43V27H37" stroke="#FF6600" stroke-width="2" stroke-miterlimit="10"/>
<path d="M41 27V23H37" stroke="#FF6600" stroke-width="2" stroke-miterlimit="10"/>
<path d="M34 5H11V44H34V5Z" stroke="#007980" stroke-width="2" stroke-miterlimit="10"/>
</svg>
