<svg width="224" height="56" viewBox="0 0 224 56" fill="none" xmlns="http://www.w3.org/2000/svg">
<path d="M76.26 40V18.97H72.39V15.7H84.51V18.97H80.7V40H76.26ZM86.8406 40V15.7H91.2206V40H86.8406ZM94.8623 31.57V28.81H102.092V31.57H94.8623ZM105.706 40V15.7H110.116V25.87H115.066V15.7H119.506V40H115.066V29.02H110.116V40H105.706ZM129.825 40.33C128.105 40.33 126.735 40.01 125.715 39.37C124.695 38.73 123.965 37.81 123.525 36.61C123.085 35.41 122.865 33.99 122.865 32.35V23.26C122.865 21.62 123.085 20.22 123.525 19.06C123.965 17.88 124.695 16.98 125.715 16.36C126.735 15.74 128.105 15.43 129.825 15.43C131.585 15.43 132.965 15.74 133.965 16.36C134.985 16.98 135.715 17.88 136.155 19.06C136.615 20.22 136.845 21.62 136.845 23.26V32.38C136.845 34 136.615 35.41 136.155 36.61C135.715 37.79 134.985 38.71 133.965 39.37C132.965 40.01 131.585 40.33 129.825 40.33ZM129.825 37.06C130.565 37.06 131.105 36.9 131.445 36.58C131.805 36.26 132.045 35.82 132.165 35.26C132.285 34.7 132.345 34.09 132.345 33.43V22.24C132.345 21.56 132.285 20.95 132.165 20.41C132.045 19.87 131.805 19.45 131.445 19.15C131.105 18.83 130.565 18.67 129.825 18.67C129.125 18.67 128.595 18.83 128.235 19.15C127.875 19.45 127.635 19.87 127.515 20.41C127.395 20.95 127.335 21.56 127.335 22.24V33.43C127.335 34.09 127.385 34.7 127.485 35.26C127.605 35.82 127.845 36.26 128.205 36.58C128.565 36.9 129.105 37.06 129.825 37.06ZM146.633 40V15.7H152.453C154.093 15.7 155.473 15.9 156.593 16.3C157.733 16.68 158.593 17.34 159.173 18.28C159.773 19.22 160.073 20.5 160.073 22.12C160.073 23.1 159.983 23.98 159.803 24.76C159.623 25.54 159.313 26.21 158.873 26.77C158.453 27.31 157.863 27.73 157.103 28.03L160.493 40H156.053L153.113 28.87H151.073V40H146.633ZM151.073 26.08H152.453C153.313 26.08 153.993 25.96 154.493 25.72C155.013 25.46 155.383 25.06 155.603 24.52C155.823 23.96 155.933 23.25 155.933 22.39C155.933 21.17 155.703 20.26 155.243 19.66C154.803 19.04 153.953 18.73 152.693 18.73H151.073V26.08ZM170.021 40.33C168.221 40.33 166.821 40 165.821 39.34C164.821 38.68 164.131 37.74 163.751 36.52C163.371 35.3 163.181 33.84 163.181 32.14V15.7H167.501V32.65C167.501 33.41 167.551 34.13 167.651 34.81C167.751 35.47 167.981 36.01 168.341 36.43C168.721 36.83 169.281 37.03 170.021 37.03C170.801 37.03 171.361 36.83 171.701 36.43C172.061 36.01 172.291 35.47 172.391 34.81C172.511 34.13 172.571 33.41 172.571 32.65V15.7H176.861V32.14C176.861 33.84 176.671 35.3 176.291 36.52C175.911 37.74 175.221 38.68 174.221 39.34C173.241 40 171.841 40.33 170.021 40.33Z" fill="#2B2F33"/>
<path d="M139.709 40V35.89H143.669V40H139.709Z" fill="#FF6600"/>
<g clip-path="url(#clip0_302_92)">
<path d="M28 56C43.464 56 56 43.464 56 28C56 12.536 43.464 0 28 0C12.536 0 0 12.536 0 28C0 43.464 12.536 56 28 56Z" fill="#FF6600"/>
<path d="M10.85 26.25V29.75" stroke="white" stroke-width="3" stroke-linecap="round"/>
<path d="M14.35 19.95V36.05" stroke="white" stroke-width="3" stroke-linecap="round"/>
<path d="M18.55 14.35V41.65" stroke="white" stroke-width="3" stroke-linecap="round"/>
<path d="M22.75 19.95V36.05" stroke="white" stroke-width="3" stroke-linecap="round"/>
<path d="M26.95 24.15V31.85" stroke="white" stroke-width="3" stroke-linecap="round"/>
<path d="M30.45 20.65V35.35" stroke="white" stroke-width="3" stroke-linecap="round"/>
<path d="M34.65 24.85V31.15" stroke="white" stroke-width="3" stroke-linecap="round"/>
<path d="M38.85 19.25V36.75" stroke="white" stroke-width="3" stroke-linecap="round"/>
<path d="M43.05 24.15V31.85" stroke="white" stroke-width="3" stroke-linecap="round"/>
<path d="M46.55 26.25V29.75" stroke="white" stroke-width="3" stroke-linecap="round"/>
</g>
<defs>
<clipPath id="clip0_302_92">
<rect width="56" height="56" fill="white"/>
</clipPath>
</defs>
</svg>
