<svg width="32" height="32" viewBox="0 0 32 32" fill="none" xmlns="http://www.w3.org/2000/svg">
<g clip-path="url(#clip0_4_31)">
<path d="M30.7644 9.53244C29.9662 7.66756 28.8142 5.98578 27.3937 4.57422C25.9697 3.16089 24.2755 2.01778 22.3964 1.22667C20.5155 0.437333 18.4515 0 16.2844 0C14.1173 0 12.0515 0.437333 10.1724 1.22667C8.29329 2.01778 6.59907 3.16089 5.17507 4.57422C3.75285 5.98578 2.59907 7.66756 1.8044 9.53244C1.00796 11.3991 0.567067 13.4489 0.567067 15.5982C0.567067 16.2951 0.61329 16.9849 0.705734 17.6693C0.798178 18.3538 0.935067 19.0293 1.1164 19.6924C1.29773 20.3556 1.52351 21.0062 1.79018 21.6409C2.05685 22.2756 2.36973 22.8924 2.72173 23.488L2.04796 25.4791L1.3724 27.4684L0.698623 29.4596L0.0230673 31.4507C0.00884505 31.488 0.00173394 31.5253 -4.38367e-05 31.5644C-0.00182161 31.6018 0.00173394 31.6409 0.0106228 31.6764C0.0195117 31.712 0.0319562 31.7493 0.0497339 31.7831C0.0675117 31.8169 0.0906228 31.8471 0.119067 31.8756C0.138623 31.8969 0.159956 31.9129 0.183067 31.9289C0.206178 31.9449 0.231067 31.9591 0.255956 31.968C0.280845 31.9769 0.307512 31.9858 0.334178 31.9911C0.360845 31.9964 0.387512 32 0.415956 32C0.426623 32 0.43729 32 0.447956 31.9982C0.458623 31.9982 0.46929 31.9964 0.479956 31.9947C0.490623 31.9929 0.50129 31.9911 0.511956 31.9893C0.522623 31.9858 0.53329 31.984 0.543956 31.9804L2.61862 31.3209L4.69329 30.6613L6.76973 30.0018L8.8444 29.3422C9.41329 29.6462 9.99818 29.9129 10.6008 30.144C11.2017 30.3751 11.8168 30.5689 12.4426 30.7253C13.0684 30.88 13.7031 30.9973 14.3448 31.0773C14.9866 31.1556 15.6355 31.1947 16.2844 31.1947C18.4515 31.1947 20.5155 30.7591 22.3964 29.968C24.2755 29.1787 25.9697 28.0338 27.3937 26.6222C28.816 25.2107 29.9662 23.5307 30.7644 21.664C31.5591 19.7991 32 17.7493 32 15.5982C32 13.4489 31.5591 11.3991 30.7644 9.53244ZM24.4657 19.7493C24.448 19.9396 24.4177 20.1493 24.368 20.3609C24.3217 20.5742 24.256 20.7929 24.1813 21.0044C24.0835 21.2764 23.904 21.536 23.6764 21.7724C23.4488 22.0107 23.1733 22.224 22.8871 22.4071C22.5991 22.5902 22.3004 22.7413 22.0231 22.8516C21.7457 22.9618 21.4915 23.0311 21.2977 23.0471L21.2693 23.0489L21.2408 23.0524L21.2106 23.056L21.1804 23.0578C21.136 23.0631 21.0897 23.0667 21.0417 23.072C20.9937 23.0756 20.9404 23.0809 20.8888 23.0844C20.8373 23.088 20.7804 23.0916 20.7217 23.0933C20.6648 23.0951 20.6044 23.0969 20.5404 23.0969H20.5386C20.3875 23.0969 20.2062 23.0898 19.984 23.0649C19.7635 23.0418 19.5022 23.0009 19.1893 22.9316C18.8764 22.8622 18.512 22.7644 18.0853 22.6276C17.6568 22.4907 17.1662 22.3147 16.6026 22.0889C16.016 21.8542 15.4311 21.552 14.8551 21.1911C14.2791 20.8284 13.7102 20.4036 13.1591 19.9236C12.6062 19.4436 12.0693 18.9102 11.5555 18.3271C11.0417 17.7422 10.5493 17.1093 10.0853 16.4302C10.0764 16.4196 10.0693 16.4071 10.0622 16.4C10.0551 16.3893 10.0497 16.3804 10.0444 16.3716C10.0373 16.3627 10.0337 16.3556 10.0302 16.3502C10.0248 16.3431 10.0213 16.3378 10.0177 16.3342C9.89685 16.1742 9.73507 15.9502 9.56085 15.6747C9.38662 15.4009 9.19996 15.0738 9.02929 14.7129C8.85685 14.352 8.70218 13.9556 8.5884 13.5378C8.47462 13.12 8.40351 12.6809 8.40351 12.2364C8.40351 11.7422 8.46396 11.3013 8.55996 10.912C8.65596 10.5227 8.79285 10.1867 8.94573 9.90044C9.1004 9.61244 9.27107 9.37778 9.43996 9.19289C9.60707 9.008 9.7724 8.86933 9.91107 8.78222C10.0426 8.69867 10.2151 8.62755 10.4053 8.56533C10.5937 8.50489 10.8 8.45333 10.9955 8.41244C11.1911 8.37156 11.3777 8.33956 11.5288 8.31822C11.68 8.29689 11.7955 8.28444 11.8506 8.28267C11.8951 8.28089 11.9271 8.27911 11.9484 8.27733C11.9715 8.27733 11.984 8.27556 11.9911 8.27556C11.9982 8.27556 12.0035 8.27556 12.0088 8.27556C12.0124 8.27556 12.0177 8.27556 12.0302 8.27556C12.1457 8.27556 12.2524 8.29333 12.3537 8.32711C12.4533 8.36444 12.5457 8.41778 12.6328 8.49067C12.7182 8.56356 12.7982 8.65422 12.8728 8.76444C12.9475 8.87467 13.0151 9.008 13.0773 9.15733C13.104 9.21956 13.1857 9.41689 13.2924 9.67467C13.4008 9.93422 13.5342 10.2596 13.6675 10.5796C13.8008 10.8996 13.9324 11.2142 14.0337 11.456C14.1368 11.6996 14.208 11.8684 14.2222 11.8951C14.2382 11.9289 14.2648 11.9787 14.2897 12.0427C14.3146 12.1067 14.3395 12.1849 14.3537 12.2756C14.3697 12.3662 14.3751 12.464 14.3608 12.5742C14.3466 12.6827 14.3146 12.7982 14.2542 12.9209L14.24 12.9458L14.2275 12.9724L14.2151 12.9991L14.2008 13.024C14.176 13.0756 14.1528 13.1253 14.128 13.1716C14.1031 13.2213 14.0764 13.2693 14.0462 13.3173C14.0177 13.3671 13.9857 13.4151 13.9502 13.4667C13.9128 13.5164 13.872 13.5716 13.824 13.6267C13.808 13.6444 13.792 13.664 13.7777 13.68C13.76 13.6996 13.744 13.7191 13.728 13.7387C13.712 13.7564 13.696 13.776 13.6817 13.7938C13.6675 13.8116 13.6497 13.8311 13.6337 13.8507C13.6 13.8898 13.568 13.9307 13.5342 13.9698C13.5004 14.0089 13.4666 14.0498 13.4328 14.0889C13.3991 14.128 13.3671 14.1653 13.3333 14.2009C13.2995 14.2364 13.2675 14.2702 13.2355 14.3022C13.2248 14.3129 13.2124 14.3271 13.1982 14.3396C13.184 14.3556 13.1697 14.3716 13.1555 14.3876C13.1413 14.4018 13.1288 14.416 13.1182 14.4302C13.1093 14.4427 13.1022 14.4551 13.1004 14.464C13.1004 14.464 13.1004 14.4658 13.1004 14.4693C13.1004 14.4729 13.1022 14.4782 13.104 14.4871C13.1057 14.4942 13.1093 14.5049 13.1164 14.5156C13.1217 14.528 13.1288 14.5422 13.1377 14.5564C13.2035 14.6684 13.3706 14.912 13.6231 15.2373C13.8773 15.5627 14.2168 15.9627 14.6275 16.3858C15.0382 16.8071 15.52 17.2498 16.0533 17.6551C16.5866 18.0604 17.1751 18.4267 17.8008 18.6987C17.8293 18.7111 17.8702 18.7289 17.9182 18.7484C17.968 18.7698 18.0266 18.7911 18.0782 18.8142C18.1315 18.8356 18.1831 18.8533 18.2204 18.8693C18.2577 18.8836 18.2862 18.8942 18.2897 18.8942C18.2968 18.8942 18.304 18.8907 18.3111 18.8871C18.3182 18.8836 18.3253 18.8764 18.336 18.8693C18.3431 18.8622 18.3502 18.8551 18.3608 18.8462C18.368 18.8373 18.3751 18.8302 18.3822 18.8213C18.4373 18.7591 18.5226 18.6613 18.6222 18.544C18.7235 18.4284 18.8408 18.2898 18.9564 18.1493C19.0737 18.0107 19.1911 17.8667 19.2924 17.7369C19.3937 17.6071 19.4808 17.4898 19.5395 17.4044C19.5911 17.3262 19.648 17.2587 19.7066 17.2018C19.7653 17.1431 19.8275 17.0933 19.8933 17.056C19.9591 17.0169 20.0266 16.9867 20.0995 16.9671C20.1706 16.9476 20.2471 16.9369 20.3271 16.9369C20.3733 16.9369 20.4213 16.9404 20.4693 16.9476C20.5137 16.9547 20.5617 16.9636 20.6062 16.976C20.6506 16.9867 20.6951 17.0009 20.7395 17.0133C20.7822 17.0276 20.8266 17.0436 20.8675 17.056C20.9724 17.0933 21.1964 17.1929 21.4737 17.3227C21.7511 17.4507 22.0835 17.6089 22.4053 17.7653C22.7271 17.92 23.0364 18.0711 23.2693 18.1849C23.504 18.2987 23.6622 18.3751 23.6764 18.3822C23.7528 18.4196 23.824 18.4551 23.8933 18.4907C23.9591 18.5262 24.0231 18.56 24.08 18.5991C24.1386 18.6364 24.192 18.6773 24.24 18.7236C24.2844 18.768 24.3271 18.8196 24.3608 18.8764C24.4124 18.9618 24.4462 19.0827 24.4622 19.232C24.4817 19.3831 24.4817 19.5591 24.4657 19.7493Z" fill="#43AD45"/>
</g>
<defs>
<clipPath id="clip0_4_31">
<rect width="32" height="32" fill="white"/>
</clipPath>
</defs>
</svg>
